<svg width="278" height="89" viewBox="0 0 278 89" fill="none" xmlns="http://www.w3.org/2000/svg">
<path d="M18.04 27.16C17.5067 27.16 17.0267 27.4267 16.6 27.96V49.08H27.88V51L23.88 53H16.6V61C16.6 66.92 17.1867 70.3867 18.36 71.4C20.12 72.8933 22.04 73.7467 24.12 73.96C26.2 74.1733 28.44 74.28 30.84 74.28V76.6C30.5733 76.6 28.6 77.3467 24.92 78.84C21.24 80.28 19 81 18.2 81C16.5467 81 14.2533 79.72 11.32 77.16C8.44 74.6 7 71.8267 7 68.84V26.76C7 26.3867 10.04 25.08 16.12 22.84C22.2533 20.5467 25.7733 19.4 26.68 19.4C27 19.4 27.3733 20.1733 27.8 21.72C28.2267 23.2667 28.7067 25.1333 29.24 27.32C29.8267 29.5067 30.4133 31.1333 31 32.2C31.64 33.2133 32.8133 33.72 34.52 33.72V35.32C33.3467 35.8533 31.3467 36.8133 28.52 38.2C25.7467 39.5333 24.2533 40.2 24.04 40.2C23.24 40.2 22.2267 38.04 21 33.72C19.7733 29.3467 18.7867 27.16 18.04 27.16ZM39.3438 75.56V48.44C39.3438 46.68 38.9704 45.16 38.2238 43.88C37.4771 42.6 36.5438 41.96 35.4238 41.96V40.2C35.7971 40.1467 38.7038 38.52 44.1438 35.32C44.5171 35.4267 44.9704 35.5867 45.5038 35.8C46.0371 35.96 46.7304 36.4667 47.5838 37.32C48.4904 38.1733 48.9438 39.16 48.9438 40.28C49.2638 40.12 50.1704 39.6133 51.6638 38.76C55.6104 36.52 58.0371 35.4 58.9438 35.4C59.9038 35.4 60.9438 35.88 62.0638 36.84C63.2371 37.8 64.1171 38.9467 64.7038 40.28C64.8104 40.2267 65.9038 39.6667 67.9838 38.6C72.1438 36.4667 74.6504 35.4 75.5038 35.4C77.2104 35.4 78.8104 36.52 80.3038 38.76C81.7971 41 82.5438 43.0533 82.5438 44.92V69.16C82.5438 72.0933 83.8504 73.8267 86.4638 74.36V76.12L77.7438 81C76.5704 80.52 75.4771 79.7467 74.4638 78.68C73.4504 77.56 72.9438 76.52 72.9438 75.56V51.96C72.9438 48.4933 72.4904 46.2 71.5838 45.08C70.6771 43.9067 69.5038 43.32 68.0638 43.32L65.7438 43.8V69.16C65.7438 72.0933 67.0504 73.8267 69.6638 74.36V76.12L60.9438 81C59.7704 80.52 58.6771 79.7467 57.6638 78.68C56.6504 77.56 56.1438 76.52 56.1438 75.56V52.36C56.1438 46.2267 54.6771 43.16 51.7438 43.16L48.9438 43.64V69.16C48.9438 72.4133 50.0371 74.2533 52.2238 74.68V76.44L44.1438 81C42.9704 80.52 41.8771 79.7467 40.8638 78.68C39.8504 77.56 39.3438 76.52 39.3438 75.56ZM116.79 27.16C116.257 27.16 115.777 27.4267 115.35 27.96V61C115.35 63.24 115.483 65.0533 115.75 66.44C116.017 67.7733 116.603 69.1067 117.51 70.44C119.27 73 123.297 74.28 129.59 74.28V76.6C129.323 76.6 127.35 77.3467 123.67 78.84C119.99 80.28 117.75 81 116.95 81C114.283 81 111.75 79.48 109.35 76.44C106.95 73.3467 105.75 70.0933 105.75 66.68V26.76C105.75 26.3867 108.79 25.08 114.87 22.84C121.003 20.5467 124.523 19.4 125.43 19.4C125.75 19.4 126.123 20.1733 126.55 21.72C126.977 23.2667 127.457 25.1333 127.99 27.32C128.577 29.5067 129.163 31.1333 129.75 32.2C130.39 33.2133 131.563 33.72 133.27 33.72V35.32C132.097 35.8533 130.097 36.8133 127.27 38.2C124.497 39.5333 123.003 40.2 122.79 40.2C121.99 40.2 120.977 38.04 119.75 33.72C118.523 29.3467 117.537 27.16 116.79 27.16ZM162.894 45.96V68.6C162.894 70.5733 163.214 71.96 163.854 72.76C164.494 73.5067 165.48 74.04 166.814 74.36V76.12L158.094 81C156.92 80.52 155.827 79.7467 154.814 78.68C153.8 77.56 153.294 76.5467 153.294 75.64L143.294 81C143.134 80.8933 142.894 80.76 142.574 80.6C142.254 80.3867 141.694 79.9867 140.894 79.4C140.147 78.76 139.48 78.0933 138.894 77.4C137.294 75.64 136.494 73.64 136.494 71.4V58.28C136.494 57.4267 137.88 56.3333 140.654 55C143.427 53.6667 146.2 52.5733 148.974 51.72L153.214 50.36C153.214 47.32 152.414 45.2133 150.814 44.04C149.214 42.8133 146.12 42.2 141.534 42.2V39.8C149.8 36.8667 154.44 35.4 155.454 35.4C157.214 35.4 158.894 36.5467 160.494 38.84C162.094 41.1333 162.894 43.5067 162.894 45.96ZM146.094 68.52C146.094 69.9067 146.494 71.0533 147.294 71.96C148.147 72.8133 149.08 73.24 150.094 73.24C151.107 73.24 152.174 72.84 153.294 72.04V53.96C151.96 54.44 150.947 54.84 150.254 55.16C149.614 55.48 148.92 55.9867 148.174 56.68C146.787 57.96 146.094 60.1733 146.094 63.32V68.52ZM166.986 40.2L175.786 35.4C176.16 35.5067 176.586 35.6667 177.066 35.88C177.6 36.04 178.293 36.5467 179.146 37.4C180.053 38.2533 180.506 39.2133 180.506 40.28C180.773 40.1733 182.026 39.3467 184.266 37.8C186.56 36.2 188.026 35.4 188.666 35.4C190.373 35.4 191.973 36.52 193.466 38.76C194.96 41 195.706 43.0533 195.706 44.92V48.84L187.466 53.48L186.106 52.36C186.106 47.88 185.68 45.32 184.826 44.68C183.866 43.9867 182.426 43.64 180.506 43.64V69.16C180.506 72.4133 181.6 74.2533 183.786 74.68V76.44L175.706 81C174.533 80.52 173.44 79.7467 172.426 78.68C171.413 77.56 170.906 76.52 170.906 75.56V49C170.906 46.6533 170.48 44.8933 169.626 43.72C168.826 42.5467 167.946 41.96 166.986 41.96V40.2ZM210.897 27.08V36.6H214.977L214.177 40.52H210.897V69.16C210.897 72.4133 211.99 74.2533 214.177 74.68V76.44L206.097 81C204.924 80.52 203.83 79.7467 202.817 78.68C201.804 77.56 201.297 76.52 201.297 75.56V40.6H198.017L198.817 37.24C200.417 37.24 202.337 36.1733 204.577 34.04C206.87 31.8533 208.23 29.5333 208.657 27.08H210.897ZM243.675 45.96V68.6C243.675 70.5733 243.995 71.96 244.635 72.76C245.275 73.5067 246.262 74.04 247.595 74.36V76.12L238.875 81C237.702 80.52 236.608 79.7467 235.595 78.68C234.582 77.56 234.075 76.5467 234.075 75.64L224.075 81C223.915 80.8933 223.675 80.76 223.355 80.6C223.035 80.3867 222.475 79.9867 221.675 79.4C220.928 78.76 220.262 78.0933 219.675 77.4C218.075 75.64 217.275 73.64 217.275 71.4V58.28C217.275 57.4267 218.662 56.3333 221.435 55C224.208 53.6667 226.982 52.5733 229.755 51.72L233.995 50.36C233.995 47.32 233.195 45.2133 231.595 44.04C229.995 42.8133 226.902 42.2 222.315 42.2V39.8C230.582 36.8667 235.222 35.4 236.235 35.4C237.995 35.4 239.675 36.5467 241.275 38.84C242.875 41.1333 243.675 43.5067 243.675 45.96ZM226.875 68.52C226.875 69.9067 227.275 71.0533 228.075 71.96C228.928 72.8133 229.862 73.24 230.875 73.24C231.888 73.24 232.955 72.84 234.075 72.04V53.96C232.742 54.44 231.728 54.84 231.035 55.16C230.395 55.48 229.702 55.9867 228.955 56.68C227.568 57.96 226.875 60.1733 226.875 63.32V68.52ZM264.648 73.16C267.901 73.16 269.741 72.28 270.168 70.52H271.928L276.488 77.08C275.848 78.0933 275.021 79 274.008 79.8C272.994 80.6 272.008 81 271.048 81H250.088C249.021 77.7467 248.488 75.2133 248.488 73.4L267.288 43.96H260.328C257.074 43.96 255.234 44.84 254.808 46.6H253.048L248.488 40.04C249.128 39.0267 249.954 38.12 250.968 37.32C251.981 36.52 252.968 36.12 253.928 36.12H264.648C267.901 36.12 269.741 35.24 270.168 33.48H271.928C272.674 34.4933 273.608 36.36 274.728 39.08C275.901 41.7467 276.488 43.3467 276.488 43.88L258.328 73.16H264.648Z" fill="#262626"/>
<mask id="path-2-outside-1_67_31" maskUnits="userSpaceOnUse" x="3" y="18" width="272" height="65" fill="black">
<rect fill="white" x="3" y="18" width="272" height="65"/>
<path d="M15.04 27.16C14.5067 27.16 14.0267 27.4267 13.6 27.96V49.08H24.88V51L20.88 53H13.6V61C13.6 66.92 14.1867 70.3867 15.36 71.4C17.12 72.8933 19.04 73.7467 21.12 73.96C23.2 74.1733 25.44 74.28 27.84 74.28V76.6C27.5733 76.6 25.6 77.3467 21.92 78.84C18.24 80.28 16 81 15.2 81C13.5467 81 11.2533 79.72 8.32 77.16C5.44 74.6 4 71.8267 4 68.84V26.76C4 26.3867 7.04 25.08 13.12 22.84C19.2533 20.5467 22.7733 19.4 23.68 19.4C24 19.4 24.3733 20.1733 24.8 21.72C25.2267 23.2667 25.7067 25.1333 26.24 27.32C26.8267 29.5067 27.4133 31.1333 28 32.2C28.64 33.2133 29.8133 33.72 31.52 33.72V35.32C30.3467 35.8533 28.3467 36.8133 25.52 38.2C22.7467 39.5333 21.2533 40.2 21.04 40.2C20.24 40.2 19.2267 38.04 18 33.72C16.7733 29.3467 15.7867 27.16 15.04 27.16ZM36.3438 75.56V48.44C36.3438 46.68 35.9704 45.16 35.2238 43.88C34.4771 42.6 33.5438 41.96 32.4238 41.96V40.2C32.7971 40.1467 35.7038 38.52 41.1438 35.32C41.5171 35.4267 41.9704 35.5867 42.5038 35.8C43.0371 35.96 43.7304 36.4667 44.5838 37.32C45.4904 38.1733 45.9438 39.16 45.9438 40.28C46.2638 40.12 47.1704 39.6133 48.6638 38.76C52.6104 36.52 55.0371 35.4 55.9438 35.4C56.9038 35.4 57.9438 35.88 59.0638 36.84C60.2371 37.8 61.1171 38.9467 61.7038 40.28C61.8104 40.2267 62.9038 39.6667 64.9838 38.6C69.1438 36.4667 71.6504 35.4 72.5038 35.4C74.2104 35.4 75.8104 36.52 77.3038 38.76C78.7971 41 79.5438 43.0533 79.5438 44.92V69.16C79.5438 72.0933 80.8504 73.8267 83.4638 74.36V76.12L74.7438 81C73.5704 80.52 72.4771 79.7467 71.4638 78.68C70.4504 77.56 69.9438 76.52 69.9438 75.56V51.96C69.9438 48.4933 69.4904 46.2 68.5838 45.08C67.6771 43.9067 66.5038 43.32 65.0638 43.32L62.7438 43.8V69.16C62.7438 72.0933 64.0504 73.8267 66.6638 74.36V76.12L57.9438 81C56.7704 80.52 55.6771 79.7467 54.6638 78.68C53.6504 77.56 53.1438 76.52 53.1438 75.56V52.36C53.1438 46.2267 51.6771 43.16 48.7438 43.16L45.9438 43.64V69.16C45.9438 72.4133 47.0371 74.2533 49.2238 74.68V76.44L41.1438 81C39.9704 80.52 38.8771 79.7467 37.8638 78.68C36.8504 77.56 36.3438 76.52 36.3438 75.56ZM113.79 27.16C113.257 27.16 112.777 27.4267 112.35 27.96V61C112.35 63.24 112.483 65.0533 112.75 66.44C113.017 67.7733 113.603 69.1067 114.51 70.44C116.27 73 120.297 74.28 126.59 74.28V76.6C126.323 76.6 124.35 77.3467 120.67 78.84C116.99 80.28 114.75 81 113.95 81C111.283 81 108.75 79.48 106.35 76.44C103.95 73.3467 102.75 70.0933 102.75 66.68V26.76C102.75 26.3867 105.79 25.08 111.87 22.84C118.003 20.5467 121.523 19.4 122.43 19.4C122.75 19.4 123.123 20.1733 123.55 21.72C123.977 23.2667 124.457 25.1333 124.99 27.32C125.577 29.5067 126.163 31.1333 126.75 32.2C127.39 33.2133 128.563 33.72 130.27 33.72V35.32C129.097 35.8533 127.097 36.8133 124.27 38.2C121.497 39.5333 120.003 40.2 119.79 40.2C118.99 40.2 117.977 38.04 116.75 33.72C115.523 29.3467 114.537 27.16 113.79 27.16ZM159.894 45.96V68.6C159.894 70.5733 160.214 71.96 160.854 72.76C161.494 73.5067 162.48 74.04 163.814 74.36V76.12L155.094 81C153.92 80.52 152.827 79.7467 151.814 78.68C150.8 77.56 150.294 76.5467 150.294 75.64L140.294 81C140.134 80.8933 139.894 80.76 139.574 80.6C139.254 80.3867 138.694 79.9867 137.894 79.4C137.147 78.76 136.48 78.0933 135.894 77.4C134.294 75.64 133.494 73.64 133.494 71.4V58.28C133.494 57.4267 134.88 56.3333 137.654 55C140.427 53.6667 143.2 52.5733 145.974 51.72L150.214 50.36C150.214 47.32 149.414 45.2133 147.814 44.04C146.214 42.8133 143.12 42.2 138.534 42.2V39.8C146.8 36.8667 151.44 35.4 152.454 35.4C154.214 35.4 155.894 36.5467 157.494 38.84C159.094 41.1333 159.894 43.5067 159.894 45.96ZM143.094 68.52C143.094 69.9067 143.494 71.0533 144.294 71.96C145.147 72.8133 146.08 73.24 147.094 73.24C148.107 73.24 149.174 72.84 150.294 72.04V53.96C148.96 54.44 147.947 54.84 147.254 55.16C146.614 55.48 145.92 55.9867 145.174 56.68C143.787 57.96 143.094 60.1733 143.094 63.32V68.52ZM163.986 40.2L172.786 35.4C173.16 35.5067 173.586 35.6667 174.066 35.88C174.6 36.04 175.293 36.5467 176.146 37.4C177.053 38.2533 177.506 39.2133 177.506 40.28C177.773 40.1733 179.026 39.3467 181.266 37.8C183.56 36.2 185.026 35.4 185.666 35.4C187.373 35.4 188.973 36.52 190.466 38.76C191.96 41 192.706 43.0533 192.706 44.92V48.84L184.466 53.48L183.106 52.36C183.106 47.88 182.68 45.32 181.826 44.68C180.866 43.9867 179.426 43.64 177.506 43.64V69.16C177.506 72.4133 178.6 74.2533 180.786 74.68V76.44L172.706 81C171.533 80.52 170.44 79.7467 169.426 78.68C168.413 77.56 167.906 76.52 167.906 75.56V49C167.906 46.6533 167.48 44.8933 166.626 43.72C165.826 42.5467 164.946 41.96 163.986 41.96V40.2ZM207.897 27.08V36.6H211.977L211.177 40.52H207.897V69.16C207.897 72.4133 208.99 74.2533 211.177 74.68V76.44L203.097 81C201.924 80.52 200.83 79.7467 199.817 78.68C198.804 77.56 198.297 76.52 198.297 75.56V40.6H195.017L195.817 37.24C197.417 37.24 199.337 36.1733 201.577 34.04C203.87 31.8533 205.23 29.5333 205.657 27.08H207.897ZM240.675 45.96V68.6C240.675 70.5733 240.995 71.96 241.635 72.76C242.275 73.5067 243.262 74.04 244.595 74.36V76.12L235.875 81C234.702 80.52 233.608 79.7467 232.595 78.68C231.582 77.56 231.075 76.5467 231.075 75.64L221.075 81C220.915 80.8933 220.675 80.76 220.355 80.6C220.035 80.3867 219.475 79.9867 218.675 79.4C217.928 78.76 217.262 78.0933 216.675 77.4C215.075 75.64 214.275 73.64 214.275 71.4V58.28C214.275 57.4267 215.662 56.3333 218.435 55C221.208 53.6667 223.982 52.5733 226.755 51.72L230.995 50.36C230.995 47.32 230.195 45.2133 228.595 44.04C226.995 42.8133 223.902 42.2 219.315 42.2V39.8C227.582 36.8667 232.222 35.4 233.235 35.4C234.995 35.4 236.675 36.5467 238.275 38.84C239.875 41.1333 240.675 43.5067 240.675 45.96ZM223.875 68.52C223.875 69.9067 224.275 71.0533 225.075 71.96C225.928 72.8133 226.862 73.24 227.875 73.24C228.888 73.24 229.955 72.84 231.075 72.04V53.96C229.742 54.44 228.728 54.84 228.035 55.16C227.395 55.48 226.702 55.9867 225.955 56.68C224.568 57.96 223.875 60.1733 223.875 63.32V68.52ZM261.648 73.16C264.901 73.16 266.741 72.28 267.168 70.52H268.928L273.488 77.08C272.848 78.0933 272.021 79 271.008 79.8C269.994 80.6 269.008 81 268.048 81H247.088C246.021 77.7467 245.488 75.2133 245.488 73.4L264.288 43.96H257.328C254.074 43.96 252.234 44.84 251.808 46.6H250.048L245.488 40.04C246.128 39.0267 246.954 38.12 247.968 37.32C248.981 36.52 249.968 36.12 250.928 36.12H261.648C264.901 36.12 266.741 35.24 267.168 33.48H268.928C269.674 34.4933 270.608 36.36 271.728 39.08C272.901 41.7467 273.488 43.3467 273.488 43.88L255.328 73.16H261.648Z"/>
</mask>
<path d="M13.6 27.96L12.8191 27.3353L12.6 27.6092V27.96H13.6ZM13.6 49.08H12.6V50.08H13.6V49.08ZM24.88 49.08H25.88V48.08H24.88V49.08ZM24.88 51L25.3272 51.8944L25.88 51.618V51H24.88ZM20.88 53V54H21.1161L21.3272 53.8944L20.88 53ZM13.6 53V52H12.6V53H13.6ZM15.36 71.4L14.7064 72.1569L14.713 72.1625L15.36 71.4ZM21.12 73.96L21.018 74.9548L21.12 73.96ZM27.84 74.28H28.84V73.28H27.84V74.28ZM27.84 76.6V77.6H28.84V76.6H27.84ZM21.92 78.84L22.2844 79.7713L22.296 79.7666L21.92 78.84ZM8.32 77.16L7.65561 77.9074L7.66247 77.9134L8.32 77.16ZM13.12 22.84L13.4657 23.7783L13.4702 23.7767L13.12 22.84ZM24.8 21.72L23.836 21.9859L24.8 21.72ZM26.24 27.32L25.2685 27.557L25.2712 27.5681L25.2742 27.5791L26.24 27.32ZM28 32.2L27.1238 32.6819L27.1384 32.7084L27.1545 32.734L28 32.2ZM31.52 33.72H32.52V32.72H31.52V33.72ZM31.52 35.32L31.9338 36.2304L32.52 35.9639V35.32H31.52ZM25.52 38.2L25.9533 39.1013L25.9604 39.0978L25.52 38.2ZM18 33.72L17.0372 33.9901L17.038 33.9931L18 33.72ZM15.04 27.16V26.16C14.1209 26.16 13.3777 26.6371 12.8191 27.3353L13.6 27.96L14.3809 28.5847C14.6757 28.2162 14.8924 28.16 15.04 28.16V27.16ZM13.6 27.96H12.6V49.08H13.6H14.6V27.96H13.6ZM13.6 49.08V50.08H24.88V49.08V48.08H13.6V49.08ZM24.88 49.08H23.88V51H24.88H25.88V49.08H24.88ZM24.88 51L24.4328 50.1056L20.4328 52.1056L20.88 53L21.3272 53.8944L25.3272 51.8944L24.88 51ZM20.88 53V52H13.6V53V54H20.88V53ZM13.6 53H12.6V61H13.6H14.6V53H13.6ZM13.6 61H12.6C12.6 63.9836 12.7472 66.3938 13.054 68.2069C13.2074 69.1134 13.4054 69.8995 13.6592 70.5457C13.9089 71.181 14.2409 71.7548 14.7064 72.1568L15.36 71.4L16.0136 70.6432C15.8925 70.5386 15.7111 70.299 15.5208 69.8143C15.3346 69.3405 15.1659 68.6999 15.026 67.8731C14.7461 66.2196 14.6 63.9364 14.6 61H13.6ZM15.36 71.4L14.713 72.1625C16.6103 73.7724 18.7163 74.7187 21.018 74.9548L21.12 73.96L21.222 72.9652C19.3637 72.7746 17.6297 72.0143 16.007 70.6375L15.36 71.4ZM21.12 73.96L21.018 74.9548C23.1364 75.1721 25.4108 75.28 27.84 75.28V74.28V73.28C25.4692 73.28 23.2636 73.1746 21.222 72.9652L21.12 73.96ZM27.84 74.28H26.84V76.6H27.84H28.84V74.28H27.84ZM27.84 76.6V75.6C27.6561 75.6 27.4749 75.6492 27.4 75.6694C27.2864 75.7 27.1522 75.7418 27.0038 75.7913C26.705 75.8909 26.3039 76.0364 25.8061 76.2247C24.8082 76.6023 23.3861 77.1658 21.544 77.9134L21.92 78.84L22.296 79.7666C24.1339 79.0208 25.5385 78.4644 26.5139 78.0953C27.0028 77.9103 27.375 77.7758 27.6362 77.6887C27.7678 77.6448 27.8603 77.6167 27.92 77.6006C28.0185 77.5741 27.9572 77.6 27.84 77.6V76.6ZM21.92 78.84L21.5556 77.9088C19.7238 78.6255 18.2656 79.1571 17.174 79.508C16.6278 79.6835 16.1848 79.8101 15.8395 79.8919C15.4779 79.9776 15.28 80 15.2 80V81V82C15.52 82 15.9021 81.9324 16.3005 81.8381C16.7152 81.7399 17.2122 81.5965 17.786 81.412C18.9344 81.0429 20.4362 80.4945 22.2844 79.7712L21.92 78.84ZM15.2 81V80C14.6161 80 13.8042 79.7678 12.7274 79.1668C11.6629 78.5727 10.4143 77.6605 8.97753 76.4066L8.32 77.16L7.66247 77.9134C9.15901 79.2195 10.5238 80.2273 11.7526 80.9132C12.9692 81.5922 14.1306 82 15.2 82V81ZM8.32 77.16L8.98436 76.4126C6.25187 73.9837 5 71.4633 5 68.84H4H3C3 72.1901 4.62813 75.2163 7.65564 77.9074L8.32 77.16ZM4 68.84H5V26.76H4H3V68.84H4ZM4 26.76H5C5 27.0631 4.85584 27.2532 4.82585 27.2919C4.78171 27.3488 4.75005 27.3708 4.76636 27.3578C4.79592 27.3342 4.88108 27.2756 5.05369 27.1802C5.38961 26.9946 5.92333 26.7418 6.67489 26.4187C8.16986 25.7761 10.4298 24.8968 13.4657 23.7783L13.12 22.84L12.7743 21.9017C9.7302 23.0232 7.43014 23.9172 5.88511 24.5813C5.11667 24.9116 4.51039 25.1954 4.08631 25.4298C3.87892 25.5444 3.67908 25.6666 3.51864 25.7947C3.43995 25.8575 3.33704 25.9481 3.2454 26.0662C3.16791 26.1662 3 26.4102 3 26.76H4ZM13.12 22.84L13.4702 23.7767C16.532 22.6318 18.9298 21.7776 20.6697 21.2108C21.5406 20.9271 22.2355 20.7191 22.7608 20.583C23.3192 20.4384 23.5959 20.4 23.68 20.4V19.4V18.4C23.3108 18.4 22.8075 18.5049 22.2592 18.6469C21.6778 18.7976 20.9394 19.0195 20.0503 19.3092C18.2702 19.8891 15.8414 20.7548 12.7698 21.9033L13.12 22.84ZM23.68 19.4V20.4C23.511 20.4 23.3804 20.3475 23.3008 20.3013C23.2263 20.2581 23.1895 20.2171 23.1854 20.2125C23.182 20.2087 23.224 20.2585 23.2994 20.4147C23.4464 20.7191 23.6275 21.2299 23.836 21.9859L24.8 21.72L25.764 21.4541C25.5459 20.6634 25.3269 20.0142 25.1006 19.5452C24.9893 19.3148 24.8514 19.0746 24.6746 18.8775C24.5132 18.6974 24.1799 18.4 23.68 18.4V19.4ZM24.8 21.72L23.836 21.9859C24.2592 23.52 24.7367 25.3765 25.2685 27.557L26.24 27.32L27.2115 27.083C26.6767 24.8902 26.1941 23.0133 25.764 21.4541L24.8 21.72ZM26.24 27.32L25.2742 27.5791C25.8671 29.7892 26.4784 31.5085 27.1238 32.6819L28 32.2L28.8762 31.7181C28.3483 30.7581 27.7862 29.2242 27.2058 27.0609L26.24 27.32ZM28 32.2L27.1545 32.734C28.0489 34.1502 29.6291 34.72 31.52 34.72V33.72V32.72C29.9976 32.72 29.2311 32.2765 28.8455 31.666L28 32.2ZM31.52 33.72H30.52V35.32H31.52H32.52V33.72H31.52ZM31.52 35.32L31.1062 34.4096C29.918 34.9497 27.9061 35.9156 25.0796 37.3022L25.52 38.2L25.9604 39.0978C28.7872 37.7111 30.7753 36.7569 31.9338 36.2304L31.52 35.32ZM25.52 38.2L25.0867 37.2987C23.7025 37.9642 22.646 38.4594 21.9123 38.7869C21.5442 38.9512 21.2676 39.0688 21.0762 39.1435C20.9793 39.1814 20.9168 39.2033 20.8817 39.2143C20.8043 39.2385 20.8942 39.2 21.04 39.2V40.2V41.2C21.2392 41.2 21.4223 41.1407 21.4783 41.1232C21.5765 41.0925 21.6873 41.052 21.8039 41.0065C22.0391 40.9146 22.3492 40.7821 22.7277 40.6131C23.4874 40.274 24.5641 39.7691 25.9533 39.1012L25.52 38.2ZM21.04 40.2V39.2C21.2975 39.2 21.3399 39.3593 21.1659 39.152C21.0202 38.9785 20.8235 38.6629 20.5853 38.1553C20.1136 37.1497 19.571 35.5917 18.962 33.4468L18 33.72L17.038 33.9931C17.6557 36.1683 18.2331 37.8503 18.7747 39.0047C19.0432 39.5771 19.3264 40.0715 19.6341 40.438C19.9135 40.7707 20.3825 41.2 21.04 41.2V40.2ZM18 33.72L18.9628 33.4499C18.3457 31.2495 17.7763 29.5517 17.2515 28.3887C16.9915 27.8125 16.7201 27.3165 16.4287 26.9488C16.1756 26.6296 15.7142 26.16 15.04 26.16V27.16V28.16C14.7391 28.16 14.6811 27.9638 14.8613 28.1912C15.0032 28.3702 15.1952 28.6942 15.4285 29.2113C15.8904 30.2349 16.4277 31.8171 17.0372 33.9901L18 33.72ZM35.2238 43.88L34.36 44.3839L35.2238 43.88ZM32.4238 41.96H31.4237V42.96H32.4238V41.96ZM32.4238 40.2L32.2823 39.21L31.4237 39.3327V40.2H32.4238ZM41.1437 35.32L41.4185 34.3585L41.0063 34.2407L40.6367 34.4581L41.1437 35.32ZM42.5037 35.8L42.1324 36.7285L42.1737 36.745L42.2164 36.7578L42.5037 35.8ZM44.5838 37.32L43.8766 38.0271L43.8874 38.0378L43.8984 38.0482L44.5838 37.32ZM45.9437 40.28H44.9437V41.898L46.391 41.1744L45.9437 40.28ZM48.6637 38.76L48.1701 37.8903L48.1676 37.8918L48.6637 38.76ZM59.0638 36.84L58.413 37.5993L58.4217 37.6067L58.4305 37.614L59.0638 36.84ZM61.7038 40.28L60.7884 40.6827L61.2115 41.6442L62.151 41.1744L61.7038 40.28ZM64.9837 38.6L65.4401 39.4898L64.9837 38.6ZM77.3038 38.76L76.4717 39.3147L77.3038 38.76ZM83.4638 74.36H84.4638V73.5435L83.6637 73.3802L83.4638 74.36ZM83.4638 76.12L83.9521 76.9926L84.4638 76.7063V76.12H83.4638ZM74.7438 81L74.3651 81.9255L74.8114 82.1081L75.2321 81.8726L74.7438 81ZM71.4638 78.68L70.7222 79.3509L70.7304 79.3599L70.7388 79.3688L71.4638 78.68ZM68.5837 45.08L67.7925 45.6914L67.7994 45.7004L67.8065 45.7092L68.5837 45.08ZM65.0638 43.32V42.32H64.9614L64.8611 42.3407L65.0638 43.32ZM62.7438 43.8L62.5411 42.8207L61.7438 42.9857V43.8H62.7438ZM66.6637 74.36H67.6637V73.5435L66.8637 73.3802L66.6637 74.36ZM66.6637 76.12L67.1521 76.9926L67.6637 76.7063V76.12H66.6637ZM57.9438 81L57.5651 81.9255L58.0114 82.1081L58.4321 81.8726L57.9438 81ZM54.6637 78.68L53.9222 79.3509L53.9304 79.3599L53.9388 79.3688L54.6637 78.68ZM48.7438 43.16V42.16H48.6587L48.5748 42.1744L48.7438 43.16ZM45.9437 43.64L45.7748 42.6544L44.9437 42.7968V43.64H45.9437ZM49.2238 74.68H50.2238V73.8563L49.4153 73.6985L49.2238 74.68ZM49.2238 76.44L49.7152 77.3109L50.2238 77.0239V76.44H49.2238ZM41.1437 81L40.7651 81.9255L41.2134 82.1089L41.6352 81.8709L41.1437 81ZM37.8638 78.68L37.1222 79.3509L37.1304 79.3599L37.1388 79.3688L37.8638 78.68ZM36.3438 75.56H37.3438V48.44H36.3438H35.3438V75.56H36.3438ZM36.3438 48.44H37.3438C37.3438 46.5363 36.9389 44.8355 36.0875 43.3761L35.2238 43.88L34.36 44.3839C35.002 45.4845 35.3438 46.8237 35.3438 48.44H36.3438ZM35.2238 43.88L36.0875 43.3761C35.2276 41.902 34.0134 40.96 32.4238 40.96V41.96V42.96C33.0741 42.96 33.7265 43.298 34.36 44.3839L35.2238 43.88ZM32.4238 41.96H33.4238V40.2H32.4238H31.4237V41.96H32.4238ZM32.4238 40.2L32.5652 41.1899C32.7712 41.1605 32.9819 41.0674 33.0881 41.0203C33.2384 40.9536 33.4225 40.8637 33.6346 40.755C34.0609 40.5367 34.6418 40.2214 35.3721 39.8126C36.835 38.994 38.929 37.783 41.6508 36.1819L41.1437 35.32L40.6367 34.4581C37.9185 36.057 35.8392 37.2594 34.3954 38.0674C33.6724 38.472 33.1166 38.7733 32.7229 38.975C32.525 39.0763 32.3783 39.1472 32.2769 39.1922C32.1314 39.2568 32.1696 39.2261 32.2823 39.21L32.4238 40.2ZM41.1437 35.32L40.869 36.2815C41.1981 36.3755 41.6172 36.5224 42.1324 36.7285L42.5037 35.8L42.8751 34.8715C42.3236 34.6509 41.836 34.4778 41.4185 34.3585L41.1437 35.32ZM42.5037 35.8L42.2164 36.7578C42.4918 36.8404 43.0338 37.1843 43.8766 38.0271L44.5838 37.32L45.2909 36.6129C44.427 35.749 43.5824 35.0796 42.7911 34.8422L42.5037 35.8ZM44.5838 37.32L43.8984 38.0482C44.6291 38.7359 44.9437 39.468 44.9437 40.28H45.9437H46.9437C46.9437 38.852 46.3518 37.6108 45.2691 36.5918L44.5838 37.32ZM45.9437 40.28L46.391 41.1744C46.7421 40.9989 47.6785 40.4748 49.1599 39.6282L48.6637 38.76L48.1676 37.8918C46.6624 38.7519 45.7854 39.2411 45.4965 39.3856L45.9437 40.28ZM48.6637 38.76L49.1574 39.6297C51.1206 38.5154 52.6863 37.691 53.8628 37.148C54.4517 36.8762 54.9275 36.6822 55.2973 36.5579C55.6888 36.4264 55.8846 36.4 55.9438 36.4V35.4V34.4C55.5496 34.4 55.1021 34.5136 54.6602 34.6621C54.1967 34.8178 53.6492 35.0438 53.0247 35.332C51.7745 35.909 50.1536 36.7646 48.1701 37.8903L48.6637 38.76ZM55.9438 35.4V36.4C56.5658 36.4 57.3811 36.7148 58.413 37.5993L59.0638 36.84L59.7145 36.0807C58.5064 35.0452 57.2417 34.4 55.9438 34.4V35.4ZM59.0638 36.84L58.4305 37.614C59.487 38.4784 60.2678 39.4996 60.7884 40.6827L61.7038 40.28L62.6191 39.8773C61.9663 38.3937 60.9872 37.1216 59.697 36.066L59.0638 36.84ZM61.7038 40.28L62.151 41.1744C62.2637 41.1181 63.365 40.554 65.4401 39.4898L64.9837 38.6L64.5274 37.7102C62.4425 38.7794 61.3571 39.3353 61.2565 39.3856L61.7038 40.28ZM64.9837 38.6L65.4401 39.4898C67.5115 38.4275 69.154 37.6399 70.3753 37.1202C70.9867 36.86 71.4781 36.6732 71.8563 36.5531C72.2596 36.4251 72.453 36.4 72.5038 36.4V35.4V34.4C72.1278 34.4 71.6879 34.5082 71.2512 34.6469C70.7894 34.7935 70.2341 35.0067 69.5922 35.2798C68.3069 35.8268 66.616 36.6391 64.5274 37.7102L64.9837 38.6ZM72.5038 35.4V36.4C73.7161 36.4 75.0528 37.1864 76.4717 39.3147L77.3038 38.76L78.1358 38.2053C76.568 35.8536 74.7047 34.4 72.5038 34.4V35.4ZM77.3038 38.76L76.4717 39.3147C77.9017 41.4596 78.5438 43.3201 78.5438 44.92H79.5438H80.5438C80.5438 42.7865 79.6925 40.5404 78.1358 38.2053L77.3038 38.76ZM79.5438 44.92H78.5438V69.16H79.5438H80.5438V44.92H79.5438ZM79.5438 69.16H78.5438C78.5438 70.7684 78.902 72.17 79.7252 73.262C80.5569 74.3653 81.7752 75.036 83.2638 75.3398L83.4638 74.36L83.6637 73.3802C82.539 73.1507 81.7972 72.6881 81.3223 72.058C80.8388 71.4167 80.5438 70.4849 80.5438 69.16H79.5438ZM83.4638 74.36H82.4638V76.12H83.4638H84.4638V74.36H83.4638ZM83.4638 76.12L82.9754 75.2474L74.2554 80.1274L74.7438 81L75.2321 81.8726L83.9521 76.9926L83.4638 76.12ZM74.7438 81L75.1224 80.0745C74.0993 79.6559 73.1202 78.9717 72.1888 77.9912L71.4638 78.68L70.7388 79.3688C71.834 80.5216 73.0415 81.3841 74.3651 81.9255L74.7438 81ZM71.4638 78.68L72.2053 78.0091C71.2672 76.9723 70.9438 76.1635 70.9438 75.56H69.9438H68.9438C68.9438 76.8765 69.6336 78.1477 70.7222 79.3509L71.4638 78.68ZM69.9438 75.56H70.9438V51.96H69.9438H68.9438V75.56H69.9438ZM69.9438 51.96H70.9438C70.9438 50.1895 70.8285 48.6792 70.5848 47.4461C70.344 46.2283 69.9613 45.1924 69.361 44.4508L68.5837 45.08L67.8065 45.7092C68.1129 46.0876 68.4101 46.7584 68.6227 47.8339C68.8323 48.8941 68.9438 50.2638 68.9438 51.96H69.9438ZM68.5837 45.08L69.375 44.4686C68.2856 43.0587 66.8241 42.32 65.0638 42.32V43.32V44.32C66.1834 44.32 67.0686 44.7547 67.7925 45.6914L68.5837 45.08ZM65.0638 43.32L64.8611 42.3407L62.5411 42.8207L62.7438 43.8L62.9464 44.7793L65.2664 44.2993L65.0638 43.32ZM62.7438 43.8H61.7438V69.16H62.7438H63.7438V43.8H62.7438ZM62.7438 69.16H61.7438C61.7438 70.7684 62.102 72.17 62.9252 73.262C63.7569 74.3653 64.9752 75.036 66.4638 75.3398L66.6637 74.36L66.8637 73.3802C65.739 73.1507 64.9972 72.6881 64.5223 72.058C64.0388 71.4167 63.7438 70.4849 63.7438 69.16H62.7438ZM66.6637 74.36H65.6637V76.12H66.6637H67.6637V74.36H66.6637ZM66.6637 76.12L66.1754 75.2474L57.4554 80.1274L57.9438 81L58.4321 81.8726L67.1521 76.9926L66.6637 76.12ZM57.9438 81L58.3224 80.0745C57.2993 79.6559 56.3202 78.9717 55.3888 77.9912L54.6637 78.68L53.9388 79.3688C55.034 80.5216 56.2415 81.3841 57.5651 81.9255L57.9438 81ZM54.6637 78.68L55.4053 78.0091C54.4672 76.9723 54.1438 76.1635 54.1438 75.56H53.1438H52.1438C52.1438 76.8765 52.8336 78.1477 53.9222 79.3509L54.6637 78.68ZM53.1438 75.56H54.1438V52.36H53.1438H52.1438V75.56H53.1438ZM53.1438 52.36H54.1438C54.1438 49.2455 53.7765 46.7652 52.9459 45.0285C52.5242 44.1469 51.9656 43.4199 51.2405 42.9146C50.507 42.4034 49.6614 42.16 48.7438 42.16V43.16V44.16C49.2927 44.16 49.7305 44.3 50.097 44.5554C50.4719 44.8167 50.83 45.2398 51.1416 45.8915C51.7777 47.2215 52.1438 49.3412 52.1438 52.36H53.1438ZM48.7438 43.16L48.5748 42.1744L45.7748 42.6544L45.9437 43.64L46.1127 44.6256L48.9127 44.1456L48.7438 43.16ZM45.9437 43.64H44.9437V69.16H45.9437H46.9437V43.64H45.9437ZM45.9437 69.16H44.9437C44.9437 70.8801 45.2297 72.3559 45.9041 73.4908C46.6029 74.6669 47.6723 75.3961 49.0322 75.6615L49.2238 74.68L49.4153 73.6985C48.5885 73.5372 48.018 73.1331 47.6234 72.4692C47.2045 71.7641 46.9437 70.6932 46.9437 69.16H45.9437ZM49.2238 74.68H48.2238V76.44H49.2238H50.2238V74.68H49.2238ZM49.2238 76.44L48.7323 75.5691L40.6523 80.1291L41.1437 81L41.6352 81.8709L49.7152 77.3109L49.2238 76.44ZM41.1437 81L41.5224 80.0745C40.4993 79.6559 39.5202 78.9717 38.5887 77.9912L37.8638 78.68L37.1388 79.3688C38.234 80.5216 39.4415 81.3841 40.7651 81.9255L41.1437 81ZM37.8638 78.68L38.6053 78.0091C37.6672 76.9723 37.3438 76.1635 37.3438 75.56H36.3438H35.3438C35.3438 76.8765 36.0336 78.1477 37.1222 79.3509L37.8638 78.68ZM112.35 27.96L111.569 27.3353L111.35 27.6092V27.96H112.35ZM112.75 66.44L111.768 66.6289L111.769 66.6361L112.75 66.44ZM114.51 70.44L113.683 71.0023L113.686 71.0065L114.51 70.44ZM126.59 74.28H127.59V73.28H126.59V74.28ZM126.59 76.6V77.6H127.59V76.6H126.59ZM120.67 78.84L121.034 79.7713L121.046 79.7666L120.67 78.84ZM106.35 76.44L105.56 77.053L105.565 77.0596L106.35 76.44ZM111.87 22.84L112.216 23.7783L112.22 23.7767L111.87 22.84ZM123.55 21.72L122.586 21.9859L123.55 21.72ZM124.99 27.32L124.018 27.557L124.021 27.5681L124.024 27.5791L124.99 27.32ZM126.75 32.2L125.874 32.6819L125.888 32.7084L125.905 32.734L126.75 32.2ZM130.27 33.72H131.27V32.72H130.27V33.72ZM130.27 35.32L130.684 36.2304L131.27 35.9639V35.32H130.27ZM124.27 38.2L124.703 39.1013L124.71 39.0978L124.27 38.2ZM116.75 33.72L115.787 33.9901L115.788 33.9931L116.75 33.72ZM113.79 27.16V26.16C112.871 26.16 112.128 26.6371 111.569 27.3353L112.35 27.96L113.131 28.5847C113.426 28.2162 113.642 28.16 113.79 28.16V27.16ZM112.35 27.96H111.35V61H112.35H113.35V27.96H112.35ZM112.35 61H111.35C111.35 63.2712 111.485 65.1548 111.768 66.6288L112.75 66.44L113.732 66.2512C113.482 64.9519 113.35 63.2088 113.35 61H112.35ZM112.75 66.44L111.769 66.6361C112.067 68.1226 112.715 69.5786 113.683 71.0023L114.51 70.44L115.337 69.8777C114.492 68.6347 113.967 67.4241 113.731 66.2439L112.75 66.44ZM114.51 70.44L113.686 71.0065C114.73 72.5257 116.397 73.5897 118.547 74.273C120.694 74.9554 123.386 75.28 126.59 75.28V74.28V73.28C123.501 73.28 121.033 72.9646 119.153 72.367C117.276 71.7703 116.05 70.9143 115.334 69.8735L114.51 70.44ZM126.59 74.28H125.59V76.6H126.59H127.59V74.28H126.59ZM126.59 76.6V75.6C126.406 75.6 126.225 75.6492 126.15 75.6694C126.036 75.7 125.902 75.7418 125.754 75.7913C125.455 75.8909 125.054 76.0364 124.556 76.2247C123.558 76.6023 122.136 77.1658 120.294 77.9134L120.67 78.84L121.046 79.7666C122.884 79.0208 124.288 78.4644 125.264 78.0953C125.753 77.9103 126.125 77.7758 126.386 77.6887C126.518 77.6448 126.61 77.6167 126.67 77.6006C126.768 77.5741 126.707 77.6 126.59 77.6V76.6ZM120.67 78.84L120.306 77.9088C118.474 78.6255 117.016 79.1571 115.924 79.508C115.378 79.6835 114.935 79.8101 114.59 79.8919C114.228 79.9776 114.03 80 113.95 80V81V82C114.27 82 114.652 81.9324 115.05 81.8381C115.465 81.7399 115.962 81.5965 116.536 81.412C117.684 81.0429 119.186 80.4945 121.034 79.7712L120.67 78.84ZM113.95 81V80C111.709 80 109.435 78.7332 107.135 75.8204L106.35 76.44L105.565 77.0596C108.065 80.2268 110.857 82 113.95 82V81ZM106.35 76.44L107.14 75.827C104.855 72.882 103.75 69.8395 103.75 66.68H102.75H101.75C101.75 70.3472 103.045 73.8113 105.56 77.053L106.35 76.44ZM102.75 66.68H103.75V26.76H102.75H101.75V66.68H102.75ZM102.75 26.76H103.75C103.75 27.0631 103.606 27.2532 103.576 27.2919C103.532 27.3488 103.5 27.3708 103.516 27.3578C103.546 27.3342 103.631 27.2756 103.804 27.1802C104.14 26.9946 104.673 26.7418 105.425 26.4187C106.92 25.7761 109.18 24.8968 112.216 23.7783L111.87 22.84L111.524 21.9017C108.48 23.0232 106.18 23.9172 104.635 24.5813C103.867 24.9116 103.26 25.1954 102.836 25.4298C102.629 25.5444 102.429 25.6666 102.269 25.7947C102.19 25.8575 102.087 25.9481 101.995 26.0662C101.918 26.1662 101.75 26.4102 101.75 26.76H102.75ZM111.87 22.84L112.22 23.7767C115.282 22.6318 117.68 21.7776 119.42 21.2108C120.291 20.9271 120.986 20.7191 121.511 20.583C122.069 20.4384 122.346 20.4 122.43 20.4V19.4V18.4C122.061 18.4 121.558 18.5049 121.009 18.6469C120.428 18.7976 119.689 19.0195 118.8 19.3092C117.02 19.8891 114.591 20.7548 111.52 21.9033L111.87 22.84ZM122.43 19.4V20.4C122.261 20.4 122.13 20.3475 122.051 20.3013C121.976 20.2581 121.939 20.2171 121.935 20.2125C121.932 20.2087 121.974 20.2585 122.049 20.4147C122.196 20.7191 122.377 21.2299 122.586 21.9859L123.55 21.72L124.514 21.4541C124.296 20.6634 124.077 20.0142 123.851 19.5452C123.739 19.3148 123.601 19.0746 123.425 18.8775C123.263 18.6974 122.93 18.4 122.43 18.4V19.4ZM123.55 21.72L122.586 21.9859C123.009 23.52 123.487 25.3765 124.018 27.557L124.99 27.32L125.962 27.083C125.427 24.8902 124.944 23.0133 124.514 21.4541L123.55 21.72ZM124.99 27.32L124.024 27.5791C124.617 29.7892 125.228 31.5085 125.874 32.6819L126.75 32.2L127.626 31.7181C127.098 30.7581 126.536 29.2242 125.956 27.0609L124.99 27.32ZM126.75 32.2L125.905 32.734C126.799 34.1502 128.379 34.72 130.27 34.72V33.72V32.72C128.748 32.72 127.981 32.2765 127.595 31.666L126.75 32.2ZM130.27 33.72H129.27V35.32H130.27H131.27V33.72H130.27ZM130.27 35.32L129.856 34.4096C128.668 34.9497 126.656 35.9156 123.83 37.3022L124.27 38.2L124.71 39.0978C127.537 37.7111 129.525 36.7569 130.684 36.2304L130.27 35.32ZM124.27 38.2L123.837 37.2987C122.453 37.9642 121.396 38.4594 120.662 38.7869C120.294 38.9512 120.018 39.0688 119.826 39.1435C119.729 39.1814 119.667 39.2033 119.632 39.2143C119.554 39.2385 119.644 39.2 119.79 39.2V40.2V41.2C119.989 41.2 120.172 41.1407 120.228 41.1232C120.326 41.0925 120.437 41.052 120.554 41.0065C120.789 40.9146 121.099 40.7821 121.478 40.6131C122.237 40.274 123.314 39.7691 124.703 39.1012L124.27 38.2ZM119.79 40.2V39.2C120.047 39.2 120.09 39.3593 119.916 39.152C119.77 38.9785 119.573 38.6629 119.335 38.1553C118.864 37.1497 118.321 35.5917 117.712 33.4468L116.75 33.72L115.788 33.9931C116.406 36.1683 116.983 37.8503 117.525 39.0047C117.793 39.5771 118.076 40.0715 118.384 40.438C118.663 40.7707 119.133 41.2 119.79 41.2V40.2ZM116.75 33.72L117.713 33.4499C117.096 31.2495 116.526 29.5517 116.002 28.3887C115.742 27.8125 115.47 27.3165 115.179 26.9488C114.926 26.6296 114.464 26.16 113.79 26.16V27.16V28.16C113.489 28.16 113.431 27.9638 113.611 28.1912C113.753 28.3702 113.945 28.6942 114.178 29.2113C114.64 30.2349 115.178 31.8171 115.787 33.9901L116.75 33.72ZM160.854 72.76L160.073 73.3847L160.083 73.3979L160.094 73.4108L160.854 72.76ZM163.814 74.36H164.814V73.5716L164.047 73.3876L163.814 74.36ZM163.814 76.12L164.302 76.9926L164.814 76.7063V76.12H163.814ZM155.094 81L154.715 81.9255L155.161 82.1081L155.582 81.8726L155.094 81ZM151.814 78.68L151.072 79.3509L151.08 79.3599L151.089 79.3688L151.814 78.68ZM150.294 75.64H151.294V73.9694L149.821 74.7586L150.294 75.64ZM140.294 81L139.739 81.832L140.238 82.1646L140.766 81.8814L140.294 81ZM139.574 80.6L139.019 81.4321L139.071 81.4666L139.127 81.4944L139.574 80.6ZM137.894 79.4L137.243 80.1593L137.272 80.184L137.302 80.2064L137.894 79.4ZM135.894 77.4L136.657 76.7541L136.646 76.7405L136.634 76.7273L135.894 77.4ZM145.974 51.72L146.268 52.6758L146.279 52.6722L145.974 51.72ZM150.214 50.36L150.519 51.3122L151.214 51.0894V50.36H150.214ZM147.814 44.04L147.205 44.8336L147.214 44.8401L147.222 44.8464L147.814 44.04ZM138.534 42.2H137.534V43.2H138.534V42.2ZM138.534 39.8L138.199 38.8576L137.534 39.0937V39.8H138.534ZM157.494 38.84L156.674 39.4122L157.494 38.84ZM144.294 71.96L143.544 72.6216L143.565 72.645L143.587 72.6671L144.294 71.96ZM150.294 72.04L150.875 72.8537L151.294 72.5546V72.04H150.294ZM150.294 53.96H151.294V52.5372L149.955 53.0191L150.294 53.96ZM147.254 55.16L146.835 54.252L146.821 54.2586L146.807 54.2656L147.254 55.16ZM145.174 56.68L145.852 57.4148L145.854 57.4128L145.174 56.68ZM159.894 45.96H158.894V68.6H159.894H160.894V45.96H159.894ZM159.894 68.6H158.894C158.894 70.6199 159.209 72.3048 160.073 73.3847L160.854 72.76L161.635 72.1353C161.219 71.6152 160.894 70.5268 160.894 68.6H159.894ZM160.854 72.76L160.094 73.4108C160.916 74.3694 162.121 74.9821 163.58 75.3324L163.814 74.36L164.047 73.3876C162.84 73.0979 162.071 72.6439 161.613 72.1092L160.854 72.76ZM163.814 74.36H162.814V76.12H163.814H164.814V74.36H163.814ZM163.814 76.12L163.325 75.2474L154.605 80.1274L155.094 81L155.582 81.8726L164.302 76.9926L163.814 76.12ZM155.094 81L155.472 80.0745C154.449 79.6559 153.47 78.9717 152.539 77.9912L151.814 78.68L151.089 79.3688C152.184 80.5216 153.392 81.3841 154.715 81.9255L155.094 81ZM151.814 78.68L152.555 78.0091C151.605 76.9588 151.294 76.1789 151.294 75.64H150.294H149.294C149.294 76.9144 149.996 78.1612 151.072 79.3509L151.814 78.68ZM150.294 75.64L149.821 74.7586L139.821 80.1186L140.294 81L140.766 81.8814L150.766 76.5214L150.294 75.64ZM140.294 81L140.848 80.168C140.636 80.0265 140.352 79.8712 140.021 79.7056L139.574 80.6L139.127 81.4944C139.435 81.6488 139.631 81.7602 139.739 81.832L140.294 81ZM139.574 80.6L140.128 79.768C139.829 79.5686 139.286 79.1809 138.485 78.5936L137.894 79.4L137.302 80.2064C138.101 80.7924 138.678 81.2048 139.019 81.4321L139.574 80.6ZM137.894 79.4L138.545 78.6407C137.835 78.0326 137.207 77.4035 136.657 76.7541L135.894 77.4L135.13 78.0459C135.754 78.7832 136.459 79.4874 137.243 80.1593L137.894 79.4ZM135.894 77.4L136.634 76.7273C135.19 75.1389 134.494 73.3749 134.494 71.4H133.494H132.494C132.494 73.9051 133.398 76.1411 135.154 78.0727L135.894 77.4ZM133.494 71.4H134.494V58.28H133.494H132.494V71.4H133.494ZM133.494 58.28H134.494C134.494 58.343 134.469 58.3149 134.568 58.1752C134.667 58.0365 134.849 57.8451 135.153 57.6053C135.762 57.1254 136.725 56.5559 138.087 55.9013L137.654 55L137.22 54.0987C135.809 54.7775 134.693 55.4213 133.915 56.0347C133.525 56.3416 133.187 56.6669 132.939 57.0148C132.692 57.3618 132.494 57.7903 132.494 58.28H133.494ZM137.654 55L138.087 55.9013C140.818 54.5882 143.545 53.5136 146.268 52.6758L145.974 51.72L145.68 50.7642C142.856 51.6331 140.036 52.7451 137.22 54.0987L137.654 55ZM145.974 51.72L146.279 52.6722L150.519 51.3122L150.214 50.36L149.908 49.4078L145.668 50.7678L145.974 51.72ZM150.214 50.36H151.214C151.214 47.1763 150.376 44.6791 148.405 43.2336L147.814 44.04L147.222 44.8464C148.451 45.7476 149.214 47.4637 149.214 50.36H150.214ZM147.814 44.04L148.422 43.2464C147.451 42.5017 146.109 42.0005 144.488 41.6791C142.856 41.3554 140.866 41.2 138.534 41.2V42.2V43.2C140.788 43.2 142.638 43.3512 144.099 43.6409C145.572 43.9329 146.577 44.3516 147.205 44.8336L147.814 44.04ZM138.534 42.2H139.534V39.8H138.534H137.534V42.2H138.534ZM138.534 39.8L138.868 40.7424C142.998 39.2771 146.212 38.1816 148.515 37.4535C149.668 37.0891 150.582 36.82 151.265 36.643C151.989 36.455 152.348 36.4 152.454 36.4V35.4V34.4C152.053 34.4 151.452 34.5283 150.763 34.707C150.032 34.8967 149.08 35.1775 147.912 35.5465C145.576 36.285 142.336 37.3896 138.199 38.8576L138.534 39.8ZM152.454 35.4V36.4C153.73 36.4 155.148 37.2251 156.674 39.4122L157.494 38.84L158.314 38.2678C156.64 35.8682 154.698 34.4 152.454 34.4V35.4ZM157.494 38.84L156.674 39.4122C158.173 41.562 158.894 43.7391 158.894 45.96H159.894H160.894C160.894 43.2743 160.014 40.7047 158.314 38.2678L157.494 38.84ZM143.094 68.52H142.094C142.094 70.1122 142.559 71.5056 143.544 72.6216L144.294 71.96L145.044 71.2984C144.428 70.6011 144.094 69.7011 144.094 68.52H143.094ZM144.294 71.96L143.587 72.6671C144.589 73.6696 145.765 74.24 147.094 74.24V73.24V72.24C146.395 72.24 145.705 71.9571 145.001 71.2529L144.294 71.96ZM147.094 73.24V74.24C148.378 74.24 149.645 73.7323 150.875 72.8537L150.294 72.04L149.713 71.2263C148.702 71.9477 147.836 72.24 147.094 72.24V73.24ZM150.294 72.04H151.294V53.96H150.294H149.294V72.04H150.294ZM150.294 53.96L149.955 53.0191C148.613 53.5022 147.568 53.9137 146.835 54.252L147.254 55.16L147.673 56.068C148.326 55.7663 149.308 55.3778 150.632 54.9009L150.294 53.96ZM147.254 55.16L146.807 54.2656C146.054 54.6419 145.283 55.2142 144.493 55.9472L145.174 56.68L145.854 57.4128C146.558 56.7592 147.174 56.3181 147.701 56.0544L147.254 55.16ZM145.174 56.68L144.495 55.9452C142.802 57.5086 142.094 60.0725 142.094 63.32H143.094H144.094C144.094 60.2742 144.772 58.4114 145.852 57.4148L145.174 56.68ZM143.094 63.32H142.094V68.52H143.094H144.094V63.32H143.094ZM163.986 40.2L163.507 39.3221L162.986 39.6064V40.2H163.986ZM172.786 35.4L173.061 34.4385L172.667 34.3259L172.307 34.5221L172.786 35.4ZM174.066 35.88L173.66 36.7938L173.718 36.8196L173.779 36.8378L174.066 35.88ZM176.146 37.4L175.439 38.1071L175.45 38.1178L175.461 38.1282L176.146 37.4ZM177.506 40.28H176.506V41.757L177.878 41.2085L177.506 40.28ZM181.266 37.8L181.834 38.6229L181.838 38.6201L181.266 37.8ZM190.466 38.76L189.634 39.3147L190.466 38.76ZM192.706 48.84L193.197 49.7113L193.706 49.4245V48.84H192.706ZM184.466 53.48L183.831 54.2519L184.36 54.6877L184.957 54.3513L184.466 53.48ZM183.106 52.36H182.106V52.8319L182.471 53.1319L183.106 52.36ZM181.826 44.68L182.426 43.88L182.419 43.8746L182.412 43.8693L181.826 44.68ZM177.506 43.64V42.64H176.506V43.64H177.506ZM180.786 74.68H181.786V73.8563L180.978 73.6985L180.786 74.68ZM180.786 76.44L181.278 77.3109L181.786 77.0239V76.44H180.786ZM172.706 81L172.328 81.9255L172.776 82.1089L173.198 81.8709L172.706 81ZM169.426 78.68L168.685 79.3509L168.693 79.3599L168.701 79.3688L169.426 78.68ZM166.626 43.72L165.8 44.2833L165.809 44.2959L165.818 44.3082L166.626 43.72ZM163.986 41.96H162.986V42.96H163.986V41.96ZM163.986 40.2L164.465 41.0779L173.265 36.2779L172.786 35.4L172.307 34.5221L163.507 39.3221L163.986 40.2ZM172.786 35.4L172.512 36.3615C172.827 36.4518 173.209 36.5933 173.66 36.7938L174.066 35.88L174.472 34.9662C173.964 34.74 173.492 34.5615 173.061 34.4385L172.786 35.4ZM174.066 35.88L173.779 36.8378C174.054 36.9204 174.596 37.2643 175.439 38.1071L176.146 37.4L176.853 36.6929C175.99 35.829 175.145 35.1596 174.354 34.9222L174.066 35.88ZM176.146 37.4L175.461 38.1282C176.203 38.827 176.506 39.5356 176.506 40.28H177.506H178.506C178.506 38.8911 177.902 37.6796 176.832 36.6718L176.146 37.4ZM177.506 40.28L177.878 41.2085C178.037 41.1446 178.239 41.0251 178.415 40.9172C178.618 40.7923 178.88 40.624 179.197 40.4148C179.832 39.9956 180.712 39.3976 181.834 38.6229L181.266 37.8L180.698 36.9771C179.58 37.7491 178.714 38.3377 178.096 38.7452C177.786 38.9494 177.545 39.1043 177.368 39.2128C177.164 39.3382 177.108 39.3621 177.135 39.3515L177.506 40.28ZM181.266 37.8L181.838 38.6201C182.972 37.8292 183.878 37.2526 184.565 36.8779C184.909 36.6903 185.18 36.563 185.386 36.4849C185.609 36.4003 185.687 36.4 185.666 36.4V35.4V34.4C185.326 34.4 184.98 34.4997 184.676 34.6151C184.355 34.737 183.997 34.9096 183.607 35.1221C182.828 35.5474 181.854 36.1708 180.694 36.9799L181.266 37.8ZM185.666 35.4V36.4C186.879 36.4 188.215 37.1864 189.634 39.3147L190.466 38.76L191.298 38.2053C189.731 35.8536 187.867 34.4 185.666 34.4V35.4ZM190.466 38.76L189.634 39.3147C191.064 41.4596 191.706 43.3201 191.706 44.92H192.706H193.706C193.706 42.7865 192.855 40.5404 191.298 38.2053L190.466 38.76ZM192.706 44.92H191.706V48.84H192.706H193.706V44.92H192.706ZM192.706 48.84L192.216 47.9687L183.976 52.6087L184.466 53.48L184.957 54.3513L193.197 49.7113L192.706 48.84ZM184.466 53.48L185.102 52.7081L183.742 51.5881L183.106 52.36L182.471 53.1319L183.831 54.2519L184.466 53.48ZM183.106 52.36H184.106C184.106 50.0983 183.999 48.2751 183.773 46.9156C183.659 46.2365 183.511 45.6398 183.315 45.1486C183.124 44.6729 182.851 44.1983 182.426 43.88L181.826 44.68L181.226 45.48C181.222 45.4768 181.248 45.4954 181.294 45.5647C181.34 45.6337 181.397 45.7388 181.458 45.8914C181.581 46.2002 181.7 46.6435 181.8 47.2444C182 48.4449 182.106 50.1417 182.106 52.36H183.106ZM181.826 44.68L182.412 43.8693C181.205 42.9976 179.517 42.64 177.506 42.64V43.64V44.64C179.336 44.64 180.528 44.9757 181.241 45.4907L181.826 44.68ZM177.506 43.64H176.506V69.16H177.506H178.506V43.64H177.506ZM177.506 69.16H176.506C176.506 70.8801 176.792 72.3559 177.467 73.4908C178.165 74.6669 179.235 75.3961 180.595 75.6615L180.786 74.68L180.978 73.6985C180.151 73.5372 179.58 73.1331 179.186 72.4692C178.767 71.7641 178.506 70.6932 178.506 69.16H177.506ZM180.786 74.68H179.786V76.44H180.786H181.786V74.68H180.786ZM180.786 76.44L180.295 75.5691L172.215 80.1291L172.706 81L173.198 81.8709L181.278 77.3109L180.786 76.44ZM172.706 81L173.085 80.0745C172.062 79.6559 171.083 78.9717 170.151 77.9912L169.426 78.68L168.701 79.3688C169.796 80.5216 171.004 81.3841 172.328 81.9255L172.706 81ZM169.426 78.68L170.168 78.0091C169.23 76.9723 168.906 76.1635 168.906 75.56H167.906H166.906C166.906 76.8765 167.596 78.1477 168.685 79.3509L169.426 78.68ZM167.906 75.56H168.906V49H167.906H166.906V75.56H167.906ZM167.906 49H168.906C168.906 46.5619 168.468 44.5526 167.435 43.1318L166.626 43.72L165.818 44.3082C166.491 45.2341 166.906 46.7448 166.906 49H167.906ZM166.626 43.72L167.452 43.1567C166.561 41.849 165.415 40.96 163.986 40.96V41.96V42.96C164.477 42.96 165.092 43.2444 165.8 44.2833L166.626 43.72ZM163.986 41.96H164.986V40.2H163.986H162.986V41.96H163.986ZM207.897 27.08H208.897V26.08H207.897V27.08ZM207.897 36.6H206.897V37.6H207.897V36.6ZM211.977 36.6L212.957 36.8L213.202 35.6H211.977V36.6ZM211.177 40.52V41.52H211.993L212.157 40.72L211.177 40.52ZM207.897 40.52V39.52H206.897V40.52H207.897ZM211.177 74.68H212.177V73.8563L211.368 73.6985L211.177 74.68ZM211.177 76.44L211.668 77.3109L212.177 77.0239V76.44H211.177ZM203.097 81L202.718 81.9255L203.167 82.1089L203.588 81.8709L203.097 81ZM199.817 78.68L199.075 79.3509L199.083 79.3599L199.092 79.3688L199.817 78.68ZM198.297 40.6H199.297V39.6H198.297V40.6ZM195.017 40.6L194.044 40.3684L193.751 41.6H195.017V40.6ZM195.817 37.24V36.24H195.027L194.844 37.0084L195.817 37.24ZM201.577 34.04L202.267 34.7641L202.267 34.7637L201.577 34.04ZM205.657 27.08V26.08H204.816L204.672 26.9087L205.657 27.08ZM207.897 27.08H206.897V36.6H207.897H208.897V27.08H207.897ZM207.897 36.6V37.6H211.977V36.6V35.6H207.897V36.6ZM211.977 36.6L210.997 36.4L210.197 40.32L211.177 40.52L212.157 40.72L212.957 36.8L211.977 36.6ZM211.177 40.52V39.52H207.897V40.52V41.52H211.177V40.52ZM207.897 40.52H206.897V69.16H207.897H208.897V40.52H207.897ZM207.897 69.16H206.897C206.897 70.8801 207.183 72.3559 207.857 73.4908C208.556 74.6669 209.625 75.3961 210.985 75.6615L211.177 74.68L211.368 73.6985C210.542 73.5372 209.971 73.1331 209.577 72.4692C209.158 71.7641 208.897 70.6932 208.897 69.16H207.897ZM211.177 74.68H210.177V76.44H211.177H212.177V74.68H211.177ZM211.177 76.44L210.685 75.5691L202.605 80.1291L203.097 81L203.588 81.8709L211.668 77.3109L211.177 76.44ZM203.097 81L203.476 80.0745C202.452 79.6559 201.473 78.9717 200.542 77.9912L199.817 78.68L199.092 79.3688C200.187 80.5216 201.395 81.3841 202.718 81.9255L203.097 81ZM199.817 78.68L200.558 78.0091C199.62 76.9723 199.297 76.1635 199.297 75.56H198.297H197.297C197.297 76.8765 197.987 78.1477 199.075 79.3509L199.817 78.68ZM198.297 75.56H199.297V40.6H198.297H197.297V75.56H198.297ZM198.297 40.6V39.6H195.017V40.6V41.6H198.297V40.6ZM195.017 40.6L195.99 40.8316L196.79 37.4716L195.817 37.24L194.844 37.0084L194.044 40.3684L195.017 40.6ZM195.817 37.24V38.24C197.826 38.24 199.993 36.9297 202.267 34.7641L201.577 34.04L200.887 33.3159C198.681 35.417 197.008 36.24 195.817 36.24V37.24ZM201.577 34.04L202.267 34.7637C204.673 32.4699 206.17 29.967 206.642 27.2513L205.657 27.08L204.672 26.9087C204.291 29.0996 203.068 31.2368 200.887 33.3163L201.577 34.04ZM205.657 27.08V28.08H207.897V27.08V26.08H205.657V27.08ZM241.635 72.76L240.854 73.3847L240.865 73.3979L240.876 73.4108L241.635 72.76ZM244.595 74.36H245.595V73.5716L244.828 73.3876L244.595 74.36ZM244.595 76.12L245.083 76.9926L245.595 76.7063V76.12H244.595ZM235.875 81L235.496 81.9255L235.943 82.1081L236.363 81.8726L235.875 81ZM232.595 78.68L231.853 79.3509L231.862 79.3599L231.87 79.3688L232.595 78.68ZM231.075 75.64H232.075V73.9694L230.603 74.7586L231.075 75.64ZM221.075 81L220.52 81.832L221.019 82.1646L221.547 81.8814L221.075 81ZM220.355 80.6L219.8 81.4321L219.852 81.4666L219.908 81.4944L220.355 80.6ZM218.675 79.4L218.024 80.1593L218.053 80.184L218.084 80.2064L218.675 79.4ZM216.675 77.4L217.438 76.7541L217.427 76.7405L217.415 76.7273L216.675 77.4ZM226.755 51.72L227.049 52.6758L227.06 52.6722L226.755 51.72ZM230.995 50.36L231.3 51.3122L231.995 51.0894V50.36H230.995ZM228.595 44.04L227.987 44.8336L227.995 44.8401L228.004 44.8464L228.595 44.04ZM219.315 42.2H218.315V43.2H219.315V42.2ZM219.315 39.8L218.981 38.8576L218.315 39.0937V39.8H219.315ZM238.275 38.84L237.455 39.4122L238.275 38.84ZM225.075 71.96L224.325 72.6216L224.346 72.645L224.368 72.6671L225.075 71.96ZM231.075 72.04L231.656 72.8537L232.075 72.5546V72.04H231.075ZM231.075 53.96H232.075V52.5372L230.736 53.0191L231.075 53.96ZM228.035 55.16L227.616 54.252L227.602 54.2586L227.588 54.2656L228.035 55.16ZM225.955 56.68L226.633 57.4148L226.635 57.4128L225.955 56.68ZM240.675 45.96H239.675V68.6H240.675H241.675V45.96H240.675ZM240.675 68.6H239.675C239.675 70.6199 239.99 72.3048 240.854 73.3847L241.635 72.76L242.416 72.1353C242 71.6152 241.675 70.5268 241.675 68.6H240.675ZM241.635 72.76L240.876 73.4108C241.697 74.3694 242.902 74.9821 244.362 75.3324L244.595 74.36L244.828 73.3876C243.621 73.0979 242.853 72.6439 242.394 72.1092L241.635 72.76ZM244.595 74.36H243.595V76.12H244.595H245.595V74.36H244.595ZM244.595 76.12L244.107 75.2474L235.387 80.1274L235.875 81L236.363 81.8726L245.083 76.9926L244.595 76.12ZM235.875 81L236.254 80.0745C235.231 79.6559 234.251 78.9717 233.32 77.9912L232.595 78.68L231.87 79.3688C232.965 80.5216 234.173 81.3841 235.496 81.9255L235.875 81ZM232.595 78.68L233.337 78.0091C232.386 76.9588 232.075 76.1789 232.075 75.64H231.075H230.075C230.075 76.9144 230.777 78.1612 231.853 79.3509L232.595 78.68ZM231.075 75.64L230.603 74.7586L220.603 80.1186L221.075 81L221.547 81.8814L231.547 76.5214L231.075 75.64ZM221.075 81L221.63 80.168C221.418 80.0265 221.134 79.8712 220.802 79.7056L220.355 80.6L219.908 81.4944C220.216 81.6488 220.412 81.7602 220.52 81.832L221.075 81ZM220.355 80.6L220.91 79.768C220.611 79.5686 220.067 79.1809 219.266 78.5936L218.675 79.4L218.084 80.2064C218.883 80.7924 219.459 81.2048 219.8 81.4321L220.355 80.6ZM218.675 79.4L219.326 78.6407C218.616 78.0326 217.988 77.4035 217.438 76.7541L216.675 77.4L215.912 78.0459C216.535 78.7832 217.24 79.4874 218.024 80.1593L218.675 79.4ZM216.675 77.4L217.415 76.7273C215.971 75.1389 215.275 73.3749 215.275 71.4H214.275H213.275C213.275 73.9051 214.179 76.1411 215.935 78.0727L216.675 77.4ZM214.275 71.4H215.275V58.28H214.275H213.275V71.4H214.275ZM214.275 58.28H215.275C215.275 58.343 215.25 58.3149 215.349 58.1752C215.448 58.0365 215.63 57.8451 215.934 57.6053C216.543 57.1254 217.507 56.5559 218.868 55.9013L218.435 55L218.002 54.0987C216.59 54.7775 215.474 55.4213 214.696 56.0347C214.307 56.3416 213.968 56.6669 213.721 57.0148C213.473 57.3618 213.275 57.7903 213.275 58.28H214.275ZM218.435 55L218.868 55.9013C221.599 54.5882 224.326 53.5136 227.049 52.6758L226.755 51.72L226.461 50.7642C223.637 51.6331 220.817 52.7451 218.002 54.0987L218.435 55ZM226.755 51.72L227.06 52.6722L231.3 51.3122L230.995 50.36L230.69 49.4078L226.45 50.7678L226.755 51.72ZM230.995 50.36H231.995C231.995 47.1763 231.158 44.6791 229.186 43.2336L228.595 44.04L228.004 44.8464C229.232 45.7476 229.995 47.4637 229.995 50.36H230.995ZM228.595 44.04L229.203 43.2464C228.232 42.5017 226.89 42.0005 225.269 41.6791C223.637 41.3554 221.647 41.2 219.315 41.2V42.2V43.2C221.57 43.2 223.42 43.3512 224.881 43.6409C226.353 43.9329 227.358 44.3516 227.987 44.8336L228.595 44.04ZM219.315 42.2H220.315V39.8H219.315H218.315V42.2H219.315ZM219.315 39.8L219.649 40.7424C223.779 39.2771 226.993 38.1816 229.296 37.4535C230.449 37.0891 231.364 36.82 232.046 36.643C232.771 36.455 233.129 36.4 233.235 36.4V35.4V34.4C232.834 34.4 232.233 34.5283 231.544 34.707C230.813 34.8967 229.861 35.1775 228.694 35.5465C226.357 36.285 223.118 37.3896 218.981 38.8576L219.315 39.8ZM233.235 35.4V36.4C234.511 36.4 235.929 37.2251 237.455 39.4122L238.275 38.84L239.095 38.2678C237.421 35.8682 235.479 34.4 233.235 34.4V35.4ZM238.275 38.84L237.455 39.4122C238.955 41.562 239.675 43.7391 239.675 45.96H240.675H241.675C241.675 43.2743 240.795 40.7047 239.095 38.2678L238.275 38.84ZM223.875 68.52H222.875C222.875 70.1122 223.34 71.5056 224.325 72.6216L225.075 71.96L225.825 71.2984C225.21 70.6011 224.875 69.7011 224.875 68.52H223.875ZM225.075 71.96L224.368 72.6671C225.37 73.6696 226.547 74.24 227.875 74.24V73.24V72.24C227.177 72.24 226.486 71.9571 225.782 71.2529L225.075 71.96ZM227.875 73.24V74.24C229.16 74.24 230.426 73.7323 231.656 72.8537L231.075 72.04L230.494 71.2263C229.484 71.9477 228.617 72.24 227.875 72.24V73.24ZM231.075 72.04H232.075V53.96H231.075H230.075V72.04H231.075ZM231.075 53.96L230.736 53.0191C229.395 53.5022 228.349 53.9137 227.616 54.252L228.035 55.16L228.454 56.068C229.108 55.7663 230.089 55.3778 231.414 54.9009L231.075 53.96ZM228.035 55.16L227.588 54.2656C226.835 54.6419 226.064 55.2142 225.275 55.9472L225.955 56.68L226.635 57.4128C227.339 56.7592 227.955 56.3181 228.482 56.0544L228.035 55.16ZM225.955 56.68L225.277 55.9452C223.583 57.5086 222.875 60.0725 222.875 63.32H223.875H224.875C224.875 60.2742 225.554 58.4114 226.633 57.4148L225.955 56.68ZM223.875 63.32H222.875V68.52H223.875H224.875V63.32H223.875ZM267.168 70.52V69.52H266.381L266.196 70.2844L267.168 70.52ZM268.927 70.52L269.749 69.9492L269.45 69.52H268.927V70.52ZM273.487 77.08L274.333 77.614L274.687 77.0535L274.309 76.5092L273.487 77.08ZM271.008 79.8L271.627 80.5849L271.008 79.8ZM247.087 81L246.137 81.3116L246.363 82H247.087V81ZM245.488 73.4L244.645 72.8618L244.488 73.1079V73.4H245.488ZM264.288 43.96L265.13 44.4982L266.113 42.96H264.288V43.96ZM251.807 46.6V47.6H252.594L252.779 46.8356L251.807 46.6ZM250.048 46.6L249.226 47.1708L249.525 47.6H250.048V46.6ZM245.488 40.04L244.642 39.506L244.288 40.0665L244.666 40.6108L245.488 40.04ZM247.967 37.32L248.587 38.1049L247.967 37.32ZM267.168 33.48V32.48H266.381L266.196 33.2444L267.168 33.48ZM268.927 33.48L269.733 32.8868L269.433 32.48H268.927V33.48ZM271.728 39.08L270.803 39.4607L270.807 39.4718L270.812 39.4827L271.728 39.08ZM273.487 43.88L274.337 44.4071L274.487 44.1649V43.88H273.487ZM255.327 73.16L254.478 72.6329L253.531 74.16H255.327V73.16ZM261.647 73.16V74.16C263.344 74.16 264.788 73.9337 265.899 73.4021C267.051 72.8509 267.846 71.9669 268.139 70.7556L267.168 70.52L266.196 70.2844C266.063 70.8331 265.724 71.2691 265.036 71.5979C264.307 71.9463 263.204 72.16 261.647 72.16V73.16ZM267.168 70.52V71.52H268.927V70.52V69.52H267.168V70.52ZM268.927 70.52L268.106 71.0908L272.666 77.6508L273.487 77.08L274.309 76.5092L269.749 69.9492L268.927 70.52ZM273.487 77.08L272.642 76.546C272.067 77.4564 271.319 78.2799 270.388 79.0151L271.008 79.8L271.627 80.5849C272.723 79.7201 273.628 78.7303 274.333 77.614L273.487 77.08ZM271.008 79.8L270.388 79.0151C269.49 79.7237 268.716 80 268.048 80V81V82C269.299 82 270.498 81.4763 271.627 80.5849L271.008 79.8ZM268.048 81V80H247.087V81V82H268.048V81ZM247.087 81L248.038 80.6884C246.98 77.4631 246.488 75.0514 246.488 73.4H245.488H244.488C244.488 75.3752 245.061 78.0303 246.137 81.3116L247.087 81ZM245.488 73.4L246.33 73.9382L265.13 44.4982L264.288 43.96L263.445 43.4218L244.645 72.8618L245.488 73.4ZM264.288 43.96V42.96H257.328V43.96V44.96H264.288V43.96ZM257.328 43.96V42.96C255.631 42.96 254.187 43.1863 253.076 43.7179C251.924 44.2691 251.129 45.1531 250.836 46.3644L251.807 46.6L252.779 46.8356C252.912 46.2869 253.251 45.8509 253.939 45.5221C254.668 45.1737 255.771 44.96 257.328 44.96V43.96ZM251.807 46.6V45.6H250.048V46.6V47.6H251.807V46.6ZM250.048 46.6L250.869 46.0292L246.309 39.4692L245.488 40.04L244.666 40.6108L249.226 47.1708L250.048 46.6ZM245.488 40.04L246.333 40.574C246.908 39.6636 247.656 38.8401 248.587 38.1049L247.967 37.32L247.348 36.5351C246.252 37.3999 245.347 38.3897 244.642 39.506L245.488 40.04ZM247.967 37.32L248.587 38.1049C249.485 37.3963 250.259 37.12 250.928 37.12V36.12V35.12C249.676 35.12 248.477 35.6437 247.348 36.5351L247.967 37.32ZM250.928 36.12V37.12H261.647V36.12V35.12H250.928V36.12ZM261.647 36.12V37.12C263.344 37.12 264.788 36.8937 265.899 36.3621C267.051 35.8109 267.846 34.9269 268.139 33.7156L267.168 33.48L266.196 33.2444C266.063 33.7931 265.724 34.2291 265.036 34.5579C264.307 34.9063 263.204 35.12 261.647 35.12V36.12ZM267.168 33.48V34.48H268.927V33.48V32.48H267.168V33.48ZM268.927 33.48L268.122 34.0732C268.789 34.9783 269.684 36.7429 270.803 39.4607L271.728 39.08L272.652 38.6992C271.531 35.9771 270.559 34.0083 269.733 32.8868L268.927 33.48ZM271.728 39.08L270.812 39.4827C271.395 40.8082 271.826 41.853 272.109 42.6243C272.25 43.0105 272.35 43.3154 272.413 43.5452C272.483 43.7972 272.487 43.8886 272.487 43.88H273.487H274.487C274.487 43.6048 274.419 43.2961 274.342 43.0148C274.258 42.7113 274.138 42.3495 273.986 41.9357C273.683 41.107 273.233 40.0184 272.643 38.6773L271.728 39.08ZM273.487 43.88L272.638 43.3529L254.478 72.6329L255.327 73.16L256.177 73.6871L274.337 44.4071L273.487 43.88ZM255.327 73.16V74.16H261.647V73.16V72.16H255.327V73.16Z" fill="#262626" mask="url(#path-2-outside-1_67_31)"/>
</svg>
