<svg width="31" height="31" viewBox="0 0 31 31" fill="none" xmlns="http://www.w3.org/2000/svg">
<path d="M6.28757 16.2669L18.7875 16.3009L14.6639 20.4022C14.5464 20.5181 14.453 20.6561 14.3891 20.8083C14.3253 20.9604 14.2921 21.1237 14.2917 21.2887C14.2912 21.4537 14.3235 21.6172 14.3865 21.7697C14.4496 21.9222 14.5422 22.0607 14.659 22.1772C14.8926 22.4107 15.2091 22.5422 15.5393 22.5431C15.8695 22.544 16.1867 22.4142 16.4215 22.182L21.7986 16.8216C22.2694 16.3562 22.5363 15.7231 22.5409 15.0611C22.5366 14.4035 22.2734 13.774 21.8082 13.3091L16.4603 7.91958C16.3441 7.80354 16.2061 7.71152 16.0543 7.64879C15.9025 7.58606 15.7399 7.55384 15.5756 7.55398C15.4114 7.55411 15.2488 7.58659 15.0971 7.64957C14.9454 7.71255 14.8076 7.80479 14.6916 7.92102C14.5755 8.03725 14.4835 8.1752 14.4208 8.327C14.358 8.47879 14.3258 8.64145 14.3259 8.8057C14.3261 8.96994 14.3586 9.13255 14.4215 9.28424C14.4845 9.43593 14.5768 9.57373 14.693 9.68978L18.7943 13.801L6.29437 13.767C5.96285 13.766 5.64455 13.8969 5.40949 14.1307C5.17443 14.3644 5.04187 14.682 5.04097 15.0135C5.04007 15.3451 5.1709 15.6634 5.40468 15.8984C5.63847 16.1335 5.95605 16.266 6.28757 16.2669Z" fill="#262626"/>
</svg>
