<svg width="30" height="30" viewBox="0 0 30 30" fill="none" xmlns="http://www.w3.org/2000/svg">
<path d="M23.75 13.75H11.25L15.3625 9.6375C15.4797 9.5213 15.5727 9.38304 15.6361 9.23072C15.6996 9.0784 15.7322 8.91501 15.7322 8.75C15.7322 8.58498 15.6996 8.4216 15.6361 8.26928C15.5727 8.11695 15.4797 7.9787 15.3625 7.8625C15.1283 7.62969 14.8115 7.49901 14.4813 7.49901C14.151 7.49901 13.8342 7.62969 13.6 7.8625L8.2375 13.2375C7.76802 13.7042 7.50279 14.338 7.5 15C7.50608 15.6576 7.77106 16.2864 8.2375 16.75L13.6 22.125C13.7165 22.2407 13.8547 22.3324 14.0067 22.3947C14.1587 22.457 14.3214 22.4888 14.4857 22.4882C14.6499 22.4876 14.8124 22.4547 14.964 22.3913C15.1155 22.3279 15.253 22.2353 15.3688 22.1187C15.4845 22.0022 15.5761 21.864 15.6384 21.712C15.7008 21.5601 15.7325 21.3973 15.7319 21.2331C15.7314 21.0688 15.6984 20.9063 15.6351 20.7548C15.5717 20.6033 15.479 20.4657 15.3625 20.35L11.25 16.25H23.75C24.0815 16.25 24.3995 16.1183 24.6339 15.8839C24.8683 15.6495 25 15.3315 25 15C25 14.6685 24.8683 14.3505 24.6339 14.1161C24.3995 13.8817 24.0815 13.75 23.75 13.75Z" fill="#262626"/>
</svg>
